<?xml version="1.0" encoding="UTF-8"?>
<svg width="230px" height="90px" viewBox="0 0 230 90" version="1.1" xmlns="http://www.w3.org/2000/svg" xmlns:xlink="http://www.w3.org/1999/xlink">
    <title>CARTO-logo-positive</title>
    <g id="Page-1" stroke="none" stroke-width="1" fill="none" fill-rule="evenodd">
        <g id="CARTO-logo-positive" fill="#000000">
            <circle id="Oval" opacity="0.1" cx="185" cy="45" r="45"></circle>
            <path d="M14.8,59.954 C21.115,59.954 24.764,57.207 27.47,53.476 L21.484,49.212 C19.762,51.302 17.999,52.697 15.006,52.697 C10.988,52.697 8.159,49.335 8.159,45.03 L8.159,44.948 C8.159,40.766 10.987,37.322 15.005,37.322 C17.752,37.322 19.638,38.675 21.278,40.684 L27.263,36.051 C24.721,32.567 20.949,30.107 15.086,30.107 C6.396,30.106 0,36.666 0,45.03 L0,45.112 C0,53.682 6.6,59.954 14.8,59.954 Z M41.012,59.38 L49.335,59.38 L51.385,54.214 L62.495,54.214 L64.545,59.38 L73.075,59.38 L60.855,30.475 L53.19,30.475 L41.01,59.38 L41.012,59.38 Z M53.722,48.023 L56.962,39.905 L60.159,48.023 L53.72,48.023 L53.722,48.023 Z M88.562,59.38 L96.516,59.38 L96.516,50.688 L100.042,50.688 L105.822,59.38 L114.966,59.38 L108.119,49.376 C111.685,47.859 114.022,44.948 114.022,40.52 L114.022,40.438 C114.022,37.608 113.162,35.436 111.48,33.755 C109.554,31.828 106.52,30.68 102.133,30.68 L88.563,30.68 L88.563,59.38 L88.562,59.38 Z M96.516,44.456 L96.516,37.526 L101.764,37.526 C104.388,37.526 106.069,38.676 106.069,40.971 L106.069,41.054 C106.069,43.144 104.469,44.457 101.804,44.457 L96.514,44.457 L96.516,44.456 Z M137.752,59.38 L137.752,37.65 L129.182,37.65 L129.182,30.68 L154.316,30.68 L154.316,37.65 L145.706,37.65 L145.706,59.38 L137.752,59.38 L137.752,59.38 Z M185,60 C176.716,60 170,53.284 170,45 C170,36.716 176.716,30 185,30 C193.284,30 200,36.716 200,45 C200,53.284 193.284,60 185,60 Z" id="Shape"></path>
        </g>
    </g>
</svg>