<?xml version="1.0" encoding="UTF-8"?>
<svg width="82px" height="62px" viewBox="0 0 82 62" version="1.1" xmlns="http://www.w3.org/2000/svg" xmlns:xlink="http://www.w3.org/1999/xlink">
    <title>opm-logo</title>
    <g id="OPM-logo" stroke="none" stroke-width="1" fill="none" fill-rule="evenodd">
        <g id="opm-logo" fill-rule="nonzero">
            <path d="M1.87891542,53.2913776 L19.0899154,61.0413776 C20.0742854,61.4866876 21.2149154,61.4007576 22.1251154,60.8148176 C23.0313654,60.2288776 23.5782154,59.2210176 23.5782154,58.1429176 L23.5782154,10.9319176 C23.5782154,9.67801764 22.8438354,8.54521764 21.6993154,8.03351764 L4.48831542,0.283517638 C3.50393542,-0.161792362 2.35941542,-0.0797623621 1.45311542,0.510077638 C0.546865423,1.09601764 1.77635684e-15,2.09987764 1.77635684e-15,3.18197764 L1.77635684e-15,50.3809776 C-0.00389057653,51.6387776 0.734395423,52.7793776 1.87891542,53.2911776 L1.87891542,53.2913776 Z" id="Path" fill="#323232"></path>
            <path d="M33.2889154,61.0343776 L50.4999154,53.2843776 C51.6405154,52.7726576 52.3788154,51.6359776 52.3788154,50.3820776 L52.3788154,3.19407764 C52.3788154,2.11207764 51.8319354,1.10427764 50.9257154,0.518277638 C50.0155554,-0.0676623621 48.8749154,-0.153602362 47.8905154,0.291717638 L30.6795154,8.03391764 C29.5350154,8.54563764 28.8005948,9.67841764 28.8005948,10.9323176 L28.8005948,58.1313176 C28.7967094,59.2133176 29.3474954,60.2211176 30.2537154,60.8071176 C31.1599354,61.3931176 32.3045154,61.4789976 33.2889154,61.0336776 L33.2889154,61.0343776 Z" id="Path" fill="#666666"></path>
            <path d="M59.4689154,53.2913776 L76.6799154,61.0413776 C77.6642954,61.4866876 78.8049154,61.4007576 79.7151154,60.8148176 C80.6213654,60.2288776 81.1682154,59.2210176 81.1682154,58.1429176 L81.1682154,10.9319176 C81.1682154,9.67801764 80.4338454,8.54521764 79.2893154,8.03351764 L62.0903154,0.283517638 C61.1059354,-0.161792362 59.9614154,-0.0797623621 59.0551154,0.510077638 C58.1449554,1.09601764 57.5980999,2.09987764 57.5980999,3.18197764 L57.5980999,50.3809776 C57.5942094,51.6348776 58.3285854,52.7754776 59.4692154,53.2911776 L59.4689154,53.2913776 Z" id="Path" fill="#999999"></path>
        </g>
    </g>
</svg>