<?xml version="1.0" encoding="UTF-8"?>
<svg width="128px" height="128px" viewBox="0 0 128 128" version="1.1" xmlns="http://www.w3.org/2000/svg" xmlns:xlink="http://www.w3.org/1999/xlink">
    <title>logo-dark</title>
    <g id="logo-dark" stroke="none" stroke-width="1" fill="none" fill-rule="evenodd">
        <g id="opm-logo" transform="translate(0, 16)" fill-rule="nonzero">
            <path d="M2.96299694,86.9017931 L30.1042614,99.5396517 C31.6565853,100.265815 33.4553268,100.12569 34.8906867,99.1702023 C36.3198175,98.214715 37.1821847,96.5712063 37.1821847,94.8131578 L37.1821847,17.8265845 C37.1821847,15.7818605 36.024088,13.9346132 34.219212,13.1001884 L7.07794758,0.462329784 C5.52560792,-0.263833419 3.72073197,-0.130067801 2.29152228,0.831779236 C0.86239144,1.78726658 0,3.42425248 0,5.18882368 L0,82.1558288 C-0.00613533011,84.2069124 1.15812099,86.0668791 2.96299694,86.901467 L2.96299694,86.9017931 Z" id="Path" fill="#999999"></path>
            <path d="M52.4956863,99.5282369 L79.6369508,86.8903783 C81.435645,86.0559209 82.5999234,84.2023465 82.5999234,82.1576225 L82.5999234,5.20855505 C82.5999234,3.44414692 81.7375089,1.80073609 80.3084254,0.845150906 C78.8731286,-0.110336434 77.0743713,-0.250478056 75.5220001,0.475701454 L48.3807357,13.1008407 C46.5758912,13.9352981 45.4177305,15.7825128 45.4177305,17.8272367 L45.4177305,94.7942418 C45.4116034,96.55865 46.2801775,98.2020608 47.709261,99.157646 C49.1383445,100.113231 50.9433151,100.253275 52.4956863,99.5270954 L52.4956863,99.5282369 Z" id="Path" fill="#666666"></path>
            <path d="M93.7808123,86.9017931 L120.922077,99.5396517 C122.474416,100.265815 124.273142,100.12569 125.708502,99.1702023 C127.137633,98.214715 128,96.5712063 128,94.8131578 L128,17.8265845 C128,15.7818605 126.841919,13.9346132 125.037027,13.1001884 L97.9146866,0.462329784 C96.3623469,-0.263833419 94.557471,-0.130067801 93.1282613,0.831779236 C91.6929645,1.78726658 90.8305887,3.42425248 90.8305887,5.18882368 L90.8305887,82.1558288 C90.8244535,84.2005528 91.9825438,86.0605194 93.7812854,86.901467 L93.7808123,86.9017931 Z" id="Path" fill="#323232"></path>
        </g>
    </g>
</svg>