<?xml version="1.0" encoding="UTF-8"?>
<svg width="288px" height="74px" viewBox="0 0 288 74" version="1.1" xmlns="http://www.w3.org/2000/svg" xmlns:xlink="http://www.w3.org/1999/xlink">
    <title>maptiler_vector</title>
    <g id="Page-1" stroke="none" stroke-width="1" fill="none" fill-rule="evenodd">
        <g id="maptiler_vector" fill="#000000" fill-rule="nonzero">
            <path d="M27.9451186,68.8910464 C29.3041512,70.2880259 30.7431269,71.7249191 31.8223586,72.8425027 C32.3020172,73.3214671 32.6617611,73.6806904 32.9415619,74 C34.1407083,72.802589 37.2984605,69.6494067 40.1364403,66.815534 C42.2149607,64.7001079 44.4133958,62.5447681 45.9323145,61.0280475 L32.9815335,48.0960086 L20.1106955,60.9482201 C22.3491021,63.223301 25.9065697,66.8554477 27.9451186,68.8910464 Z" id="Path"></path>
            <polygon id="Path" points="40.4961842 53.5242718 46.9715747 59.9902913 59.9623273 47.0183387 47.0115463 34.0862999 34.0207937 47.0582524"></polygon>
            <path d="M48.0508065,33.0485437 L60.961616,45.9406688 C67.7168074,38.6763754 67.7567789,27.3807983 61.0015876,20.0765912 L55.1657418,25.9039914 L48.0508065,33.0485437 Z" id="Path"></path>
            <polygon id="Rectangle" transform="translate(19.0233, 47.0071) rotate(-45) translate(-19.0233, -47.0071)" points="9.90985449 37.8138333 28.123516 37.8270221 28.1368206 56.2004526 9.92315903 56.1872638"></polygon>
            <polygon id="Path" points="50.5290424 28.5382956 60.0022989 19.038835 47.0115463 6.06688242 34.0207937 19.038835 47.0115463 32.0107875"></polygon>
            <path d="M5.04142249,45.9007551 L15.7138254,35.2437972 L17.9122605,33.0485437 L8.99860559,24.1477886 L5.00145094,20.1564186 C-1.67379732,27.420712 -1.67379732,38.6763754 5.04142249,45.9007551 Z" id="Path"></path>
            <polygon id="Rectangle" transform="translate(18.9898, 19.0727) rotate(-45) translate(-18.9898, -19.0727)" points="9.79641884 9.91928043 28.1698494 9.93258497 28.183096 28.226131 9.80966553 28.2128265"></polygon>
            <path d="M20.070724,5.10895361 L33.021505,18.0409924 L34.70031,16.364617 L45.9722861,5.06903991 C42.45479,1.7961165 37.8580621,1.13686838e-13 33.021505,1.13686838e-13 C28.1849479,1.13686838e-13 23.5882201,1.7961165 20.070724,5.10895361 Z" id="Path"></path>
            <path d="M103.171569,50.4908306 L103.171569,36.5609493 C103.171569,33.1283711 101.372849,30.0151025 97.8553534,30.0151025 C94.3778289,30.0151025 92.2993084,33.1283711 92.2993084,36.5609493 L92.2993084,50.4908306 L85.8638895,50.4908306 L85.8638895,24.4271845 L91.8196499,24.4271845 L92.2993084,27.5803668 C93.658341,24.9460626 96.6961786,23.9881338 99.1744144,23.9881338 C102.292195,23.9881338 105.409976,25.2653722 106.888923,28.8576052 C109.207273,25.1855448 112.205139,24.1078749 115.60272,24.1078749 C122.997456,24.1078749 126.634867,28.6580367 126.634867,36.4412082 L126.634867,50.4509169 L120.199448,50.4509169 L120.199448,36.4412082 C120.199448,33.00863 118.760472,30.0949299 115.282948,30.0949299 C111.805423,30.0949299 109.64696,33.0884574 109.64696,36.5210356 L109.64696,50.4509169 L103.171569,50.4509169 L103.171569,50.4908306 Z" id="Path"></path>
            <path d="M153.775547,24.5070119 L159.971137,24.5070119 L159.971137,50.4908306 L153.895462,50.4908306 L153.575689,46.6990291 C152.096742,49.772384 148.019644,51.2491909 145.141693,51.2893541 C137.427184,51.3290183 131.711253,46.579288 131.711253,37.4789644 C131.711253,28.4983819 137.667014,23.828479 145.301579,23.8681389 C148.779104,23.8681389 152.096742,25.5048544 153.575689,28.0992449 L153.775547,24.5070119 Z M138.146672,37.4789644 C138.146672,42.4282632 141.584225,45.381877 145.861181,45.381877 C156.013954,45.381877 156.013954,29.6159655 145.861181,29.6159655 C141.584225,29.6159655 138.146672,32.4897519 138.146672,37.4789644 Z" id="Shape"></path>
            <path d="M165.407267,61.3473571 L165.407267,24.5070119 L171.44297,24.5070119 L171.882657,28.0992449 C173.881235,25.1855448 177.358759,23.9482201 180.316654,23.9482201 C188.350935,23.9482201 193.66715,29.8953614 193.66715,37.5587918 C193.66715,45.1423948 188.870565,51.1693635 180.516512,51.1693635 C177.758475,51.1693635 173.721349,50.3311758 171.842686,47.4573894 L171.842686,61.3473571 L165.407267,61.3473571 Z M187.19176,37.5188781 C187.19176,33.4476807 184.433723,30.1348436 179.797024,30.1348436 C175.160324,30.1348436 172.402288,33.4476807 172.402288,37.5188781 C172.402288,41.5900755 175.400154,44.9029126 179.797024,44.9029126 C184.193894,44.9029126 187.19176,41.5900755 187.19176,37.5188781 Z" id="Shape"></path>
            <path d="M205.178956,16.6040992 L205.178956,24.4670982 L214.052639,24.4670982 L214.052639,26.622438 L205.178956,26.622438 L205.178956,42.5080906 C205.178956,46.0204962 205.938415,48.5350593 209.975541,48.5350593 C211.254631,48.5350593 212.653635,48.0960086 213.972696,47.4973031 L214.85207,49.6127292 C213.213237,50.4110032 211.574403,50.9298813 209.93557,50.9298813 C204.379525,50.9298813 202.580805,47.6569579 202.580805,42.5480043 L202.580805,26.5825243 L197.064732,26.5825243 L197.064732,24.4271845 L202.620777,24.4271845 L202.620777,16.8435814 L205.178956,16.6040992 Z" id="Path"></path>
            <path d="M223.445952,15.96548 C223.445952,18.7195254 219.288912,18.7195254 219.288912,15.96548 C219.24894,13.2114347 223.445952,13.2114347 223.445952,15.96548 Z M220.008399,24.3473571 L220.008399,50.4908306 L222.60655,50.4908306 L222.60655,24.3473571 L220.008399,24.3473571 Z" id="Shape"></path>
            <polygon id="Path" points="232.559465 13.570658 232.559465 50.4908306 229.961315 50.4908306 229.961315 13.570658"></polygon>
            <path d="M273.610243,24.4271845 L273.730158,29.0571737 C275.368991,25.5048544 279.046374,24.1477886 282.403983,24.1477886 C284.362589,24.1078749 286.241252,24.626753 288,25.6645092 L286.840825,27.7799353 C285.481793,26.9417476 283.922902,26.5825243 282.403983,26.5825243 C277.527455,26.622438 273.810101,30.5339806 273.810101,35.2837109 L273.810101,50.4509169 L271.21195,50.4509169 L271.21195,24.4271845 L273.610243,24.4271845 Z" id="Path"></path>
            <path d="M251.54595,48.9341963 C246.949222,48.9341963 242.992039,46.0604099 241.353205,41.9892125 L241.353205,41.9892125 L241.353205,41.9892125 C241.353205,41.9892125 241.353205,41.9892125 241.353205,41.9892125 L262.458182,36.4012945 C262.458182,36.4012945 262.458182,36.4012945 262.458182,36.4412082 L264.696588,35.8425027 C263.777243,29.2567422 258.221198,24.1477886 251.505978,24.1477886 C244.151214,24.1477886 238.195453,30.214671 238.195453,37.7184466 C238.195453,45.2222222 244.151214,51.2891046 251.505978,51.2891046 C257.022051,51.2891046 261.738694,47.8964401 263.737271,43.0269687 L261.618779,42.1089536 C260.019917,46.1003236 256.102706,48.9341963 251.54595,48.9341963 Z M240.553774,37.6785329 C240.553774,31.4919094 245.470275,26.4627832 251.54595,26.4627832 C256.302564,26.4627832 260.33969,29.5361381 261.89858,33.8468177 L240.673689,39.4746494 C240.593746,38.8759439 240.553774,38.2772384 240.553774,37.6785329 Z" id="Shape"></path>
        </g>
    </g>
</svg>