<?xml version="1.0" encoding="UTF-8"?>
<svg width="340px" height="60px" viewBox="0 0 340 60" version="1.1" xmlns="http://www.w3.org/2000/svg" xmlns:xlink="http://www.w3.org/1999/xlink">
    <title>openplanetary</title>
    <g id="openplanetary" stroke="none" fill="none" fill-rule="evenodd" stroke-width="1">
        <g id="logo/logo_lightbg" fill="#161C27">
            <g id="text" transform="translate(72.0637, 16.3412)" fill-rule="nonzero">
                <path d="M13.7248993,26.6671988 C21.628287,26.6671988 27.4499194,21.2346377 27.4499194,13.8272707 C27.4499194,6.41978265 21.628287,0.987705384 13.7248993,0.987705384 C5.82163247,0.987705384 1.90380166e-14,6.41978265 1.90380166e-14,13.8272707 C1.90380166e-14,21.2346377 5.82163247,26.6671988 13.7248993,26.6671988 Z M13.7248993,20.8827065 C9.98502208,20.8827065 7.05648388,18.0954351 7.05648388,13.8272707 C7.05648388,9.55922725 9.98502208,6.77256049 13.7248993,6.77256049 C17.4648974,6.77256049 20.3933146,9.55922725 20.3933146,13.8272707 C20.3933146,18.0954351 17.4648974,20.8827065 13.7248993,20.8827065 Z M41.4218373,6.73724643 C38.9165696,6.73724643 37.0463891,7.44280209 35.7762147,8.95949283 L35.7762147,7.0547102 L29.390262,7.0547102 L29.390262,33.3333333 L36.0943632,33.3333333 L36.0943632,24.4794199 C37.3996186,25.8206288 39.1996371,26.4906285 41.4218373,26.4906285 C46.6089875,26.4906285 50.8066114,22.6810632 50.8066114,16.6139375 C50.8066114,10.5468117 46.6089875,6.73724643 41.4218373,6.73724643 Z M40.0101293,21.1644935 C37.7528481,21.1644935 35.9879105,19.5064255 35.9879105,16.6139375 C35.9879105,13.7214495 37.7528481,12.0636234 40.0101293,12.0636234 C42.2686203,12.0636234 44.0323481,13.7214495 44.0323481,16.6139375 C44.0323481,19.5064255 42.2686203,21.1644935 40.0101293,21.1644935 Z M73.1060343,16.6492515 C73.1060343,10.3351692 68.5188903,6.73724643 62.8732677,6.73724643 C56.8405444,6.73724643 52.3598532,10.8290823 52.3598532,16.5786233 C52.3598532,22.2928504 56.7703824,26.4906285 63.5797266,26.4906285 C67.2136349,26.4906285 69.8955174,25.4324159 71.7294073,23.3861351 L68.2019516,19.718068 C66.8954865,20.8464249 65.6616029,21.3761359 63.7914223,21.3761359 C61.3212357,21.3761359 59.6627508,20.2477789 59.0990354,18.3070776 L72.9995816,18.3070776 L73.0659633,17.4649217 C73.0881914,17.1783276 73.1060343,16.8961476 73.1060343,16.6492515 Z M62.9095585,11.499203 C64.9902251,11.499203 66.4720951,12.7690581 66.8253245,14.779662 L58.9925827,14.779662 C59.3808931,12.7690581 60.8276822,11.499203 62.9095585,11.499203 Z M87.254567,6.73724643 C84.8545422,6.73724643 82.702504,7.54862336 81.1855528,9.13594223 L81.1855528,7.0547102 L74.7996001,7.0547102 L74.7996001,26.17256 L81.5024916,26.17256 L81.5024916,16.9314012 C81.5024916,13.7567635 83.1609764,12.4164012 85.3130147,12.4164012 C87.254567,12.4164012 88.4533696,13.5804351 88.4533696,16.3317877 L88.4533696,26.17256 L95.1574707,26.17256 L95.1574707,15.2382611 C95.1574707,9.31227067 91.7352582,6.73724643 87.254567,6.73724643 Z M108.494302,1.4814976 L97.204266,1.4814976 L97.204266,26.17256 L104.190225,26.17256 L104.190225,19.718068 L108.494302,19.718068 C115.233484,19.718068 119.467398,16.2259665 119.467398,10.6174398 C119.467398,4.97359911 115.233484,1.4814976 108.494302,1.4814976 Z M108.07091,14.2153625 L104.190225,14.2153625 L104.190225,6.984203 L108.07091,6.984203 C110.964488,6.984203 112.410068,8.32456528 112.410068,10.6174398 C112.410068,12.8748794 110.964488,14.2153625 108.07091,14.2153625 Z M121.125883,0 L127.829621,0 L127.829621,26.1731647 L121.125883,26.1731647 L121.125883,0 Z M138.908324,6.73724643 C135.908293,6.73724643 132.662695,7.51330929 130.475576,8.95949283 L132.732857,13.5098069 C134.039323,12.4869084 136.084908,11.8519809 137.920007,11.8519809 C140.565599,11.8519809 141.872064,12.9455075 141.977307,14.8854832 L138.166784,14.8854832 C132.239304,14.8854832 129.663874,17.0725365 129.663874,20.5997103 C129.663874,23.9158461 132.204223,26.4906285 136.791367,26.4906285 C139.578492,26.4906285 141.483754,25.5376324 142.435779,23.7042036 L142.435779,26.17256 L148.681409,26.17256 L148.681409,15.5557249 C148.681409,9.48859912 145.117662,6.73724643 138.908324,6.73724643 Z M138.660338,22.2577781 C137.073224,22.2577781 136.156279,21.4462803 136.156279,20.3179233 C136.156279,19.1532848 136.931691,18.3775848 139.083729,18.3775848 L141.977307,18.3775848 L141.977307,20.0361364 C141.448673,21.5527063 140.142208,22.2577781 138.660338,22.2577781 Z M163.252123,6.73724643 C160.853308,6.73724643 158.70127,7.54862336 157.184319,9.13594223 L157.184319,7.0547102 L150.798366,7.0547102 L150.798366,26.17256 L157.501257,26.17256 L157.501257,16.9314012 C157.501257,13.7567635 159.159742,12.4164012 161.311781,12.4164012 C163.252123,12.4164012 164.452136,13.5804351 164.452136,16.3317877 L164.452136,26.17256 L171.156236,26.17256 L171.156236,15.2382611 C171.156236,9.31227067 167.734024,6.73724643 163.252123,6.73724643 Z M193.772598,16.6492515 C193.772598,10.3351692 189.185454,6.73724643 183.539832,6.73724643 C177.507108,6.73724643 173.026416,10.8290823 173.026416,16.5786233 C173.026416,22.2928504 177.435736,26.4906285 184.24629,26.4906285 C187.880199,26.4906285 190.560872,25.4324159 192.395971,23.3861351 L188.867305,19.718068 C187.56205,20.8464249 186.326958,21.3761359 184.457987,21.3761359 C181.987799,21.3761359 180.329314,20.2477789 179.764389,18.3070776 L193.666146,18.3070776 L193.732527,17.4649217 C193.754755,17.1783276 193.772598,16.8961476 193.772598,16.6492515 Z M183.574913,11.499203 C185.656789,11.499203 187.138658,12.7690581 187.491888,14.779662 L179.659147,14.779662 C180.047457,12.7690581 181.494246,11.499203 183.574913,11.499203 Z M207.708226,20.7061361 C207.144509,21.0943491 206.40297,21.3059916 205.66264,21.3059916 C204.462627,21.3059916 203.650926,20.5295659 203.650926,19.1182127 L203.650926,12.7690581 L208.026373,12.7690581 L208.026373,7.76026587 L203.650926,7.76026587 L203.650926,2.78666676 L196.948034,2.78666676 L196.948034,7.76026587 L194.159699,7.76026587 L194.159699,12.7690581 L196.948034,12.7690581 L196.948034,19.1895664 C196.948034,24.0924164 199.805321,26.4906285 204.709404,26.4906285 C206.474342,26.4906285 208.202989,26.1374879 209.36671,25.3973437 L207.708226,20.7061361 Z M219.387781,6.73724643 C216.387751,6.73724643 213.142153,7.51330929 210.955033,8.95949283 L213.212315,13.5098069 C214.51878,12.4869084 216.564365,11.8519809 218.399464,11.8519809 C221.045056,11.8519809 222.351521,12.9455075 222.456764,14.8854832 L218.646242,14.8854832 C212.718761,14.8854832 210.143331,17.0725365 210.143331,20.5997103 C210.143331,23.9158461 212.68368,26.4906285 217.270824,26.4906285 C220.057949,26.4906285 221.963211,25.5376324 222.915237,23.7042036 L222.915237,26.17256 L229.160866,26.17256 L229.160866,15.5557249 C229.160866,9.48859912 225.597119,6.73724643 219.387781,6.73724643 Z M219.139795,22.2577781 C217.552681,22.2577781 216.635736,21.4462803 216.635736,20.3179233 C216.635736,19.1532848 217.411148,18.3775848 219.563186,18.3775848 L222.456764,18.3775848 L222.456764,20.0361364 C221.92813,21.5527063 220.621665,22.2577781 219.139795,22.2577781 Z M237.663775,9.34758473 L237.663775,7.0547102 L231.277822,7.0547102 L231.277822,26.17256 L237.980714,26.17256 L237.980714,17.3900003 C237.980714,14.0389132 239.850894,12.6632369 242.567858,12.6632369 C243.061411,12.6632369 243.484803,12.6985509 244.08481,12.7690581 L244.08481,6.73724643 C241.262602,6.73724643 239.039193,7.61913055 237.663775,9.34758473 Z M261.550312,7.0547102 L256.821634,18.7299997 L252.129246,7.0547102 L245.24974,7.0547102 L253.434502,26.4204841 C252.870787,27.5488411 252.129246,28.0422704 250.823991,28.0422704 C249.765513,28.0422704 248.636873,27.6189855 247.860251,26.9139135 L245.531599,31.6051211 C246.801773,32.6633336 249.060264,33.3333333 251.070768,33.3333333 C254.84621,33.3333333 257.668416,31.8881173 259.680131,26.9489857 L267.936264,7.0547102 L261.550312,7.0547102 Z" id="Shape"></path>
            </g>
            <g id="logoshape" fill-rule="nonzero">
                <path d="M22.4720824,59.0196 L22.4720824,51.2196 C24.8678345,52.0776 27.4504722,52.5444 30.1428297,52.5444 C42.6533098,52.5444 52.7945634,42.4512 52.7945634,30 C52.7945634,17.5488 42.6533098,7.4556 30.1428297,7.4556 C17.6323497,7.4556 7.49109604,17.5488 7.49109604,30 C7.49109604,30.12 7.49109604,30.24 7.49350747,30.3588 L7.49109604,30.3588 L7.49109604,49.7928 C2.82739743,44.5104 0,37.584 0,30 C0,13.4316 13.4955477,0 30.1428297,0 C46.7901117,0 60.2856595,13.4316 60.2856595,30 C60.2856595,46.5684 46.7901117,60 30.1428297,60 C27.4914664,60 24.9208859,59.6592 22.4720824,59.0196 Z M30.1428297,37.6344 C25.9059536,37.6344 22.4720824,34.2168 22.4720824,30 C22.4720824,25.7832 25.9059536,22.3656 30.1428297,22.3656 C34.3797059,22.3656 37.813577,25.7832 37.813577,30 C37.813577,34.2168 34.3797059,37.6344 30.1428297,37.6344 Z" id="shape"></path>
            </g>
        </g>
    </g>
</svg>