<?xml version="1.0" encoding="UTF-8"?>
<svg width="66px" height="66px" viewBox="0 0 66 66" version="1.1" xmlns="http://www.w3.org/2000/svg" xmlns:xlink="http://www.w3.org/1999/xlink">
    <title>logo</title>
    <g id="logo" stroke="none" stroke-width="1" fill="none" fill-rule="evenodd">
        <path d="M46.62908,0.358370653 L64.5306217,5.28437709 C65.3985735,5.5232133 66,6.31249011 66,7.21270296 L66,63.1053353 C66,64.2099048 65.1045695,65.1053353 64,65.1053353 C63.8446388,65.1053353 63.6898066,65.0872327 63.5386356,65.0513936 L46.2859348,60.9611866 C44.7824538,60.6047468 43.2168259,60.6015612 41.7119069,60.9518797 L23.9039746,65.0972512 C22.3851904,65.4507973 20.804771,65.4442519 19.2889673,65.0781379 L1.53043976,60.788898 C0.632564206,60.5720329 -6.66133815e-16,59.7684951 -6.66133815e-16,58.844801 L-6.66133815e-16,2.27271671 C-6.66133815e-16,1.16814721 0.8954305,0.27271671 2,0.27271671 C2.18250197,0.27271671 2.36414519,0.297696393 2.53987236,0.346960277 L18.9437957,4.94568556 C20.6784767,5.43199124 22.5123149,5.44064661 24.251509,4.97073696 L41.3676203,0.346166435 C43.0910873,-0.119493945 44.9077918,-0.115280008 46.62908,0.358370653 Z M32.5757593,10.6955424 C20.1494593,10.6955424 10.0757593,20.7141167 10.0757593,33.072417 C10.0757593,38.7292909 12.1862593,43.8956637 15.6674593,47.8357837 L15.6674593,33.3400444 C15.6674593,33.251432 15.6674593,33.1619245 15.6674593,33.072417 C15.6674593,23.785119 23.2373593,16.2566433 32.5757593,16.2566433 C41.9141593,16.2566433 49.4840593,23.785119 49.4840593,33.072417 C49.4840593,42.359715 41.9141593,49.8881907 32.5757593,49.8881907 C30.5660593,49.8881907 28.6382593,49.5400065 26.8499593,48.9000279 L26.8499593,54.7180153 C28.6778593,55.1950903 30.5966593,55.4492915 32.5757593,55.4492915 C45.0020593,55.4492915 55.0757593,45.4307173 55.0757593,33.072417 C55.0757593,20.7141167 45.0020593,10.6955424 32.5757593,10.6955424 Z M32.5757593,27.3779499 C29.4131593,27.3779499 26.8499593,29.9271235 26.8499593,33.072417 C26.8499593,36.2177105 29.4131593,38.766884 32.5757593,38.766884 C35.7383593,38.766884 38.3015593,36.2177105 38.3015593,33.072417 C38.3015593,29.9271235 35.7383593,27.3779499 32.5757593,27.3779499 Z" id="opm-logo" fill="#D9684E"></path>
    </g>
</svg>